<svg width="573" height="66" viewBox="0 0 573 66" fill="none" xmlns="http://www.w3.org/2000/svg">
<g clip-path="url(#clip0)">
<path d="M0 17L12.5 45L33.3 65.5999L12.6 1.69995L0 17Z" fill="#E2E4E8"/>
<path d="M20.2998 0L27.4998 22.4L31.9998 24L37.2998 7.2L20.2998 0Z" fill="#E2E4E8"/>
<path d="M72.1002 21.1L62.1002 35L39.2002 26.7L45.7002 6.69995L63.4002 2.19995L72.1002 21.1Z" fill="#E2E4E8"/>
<path d="M57.4001 41.6L41.1001 64L30.6001 31.9L57.4001 41.6Z" fill="#E2E4E8"/>
<path d="M29.6001 9.39995L32.0001 24L37.3001 7.19995L29.6001 9.39995Z" fill="#CACED6"/>
<path d="M27.4998 22.4L31.9998 24L29.5998 9.4L20.2998 0L27.4998 22.4Z" fill="#F2F3F4"/>
<path d="M21.8 30L12.5 45L0 17L21.8 30Z" fill="#CACED6"/>
<path d="M45.7002 6.69995L54.0002 19.5L39.2002 26.7L45.7002 6.69995Z" fill="#F2F3F4"/>
<path d="M63.4002 2.19995L54.0002 19.5L45.7002 6.69995L63.4002 2.19995Z" fill="#F7F8F9"/>
<path d="M62.1 35L54 19.5L72.1 21.1L62.1 35Z" fill="#CACED6"/>
<path d="M41.7001 44.3L41.1001 64L30.6001 31.9L41.7001 44.3Z" fill="#F2F3F4"/>
<path d="M41.1001 64L41.7001 44.3L57.4001 41.6L41.1001 64Z" fill="#CACED6"/>
<path d="M33.3 65.6L12.5 45L27.5 47.8L33.3 65.6Z" fill="#CACED6"/>
<path d="M12.6 1.69995L0 17L21.8 30L12.6 1.69995Z" fill="#E2E4E8"/>
<path d="M27.5 47.8L12.5 45L21.8 30L27.5 47.8Z" fill="#E2E4E8"/>
<path d="M54.0002 19.5L62.1002 35L39.2002 26.7L54.0002 19.5Z" fill="#E2E4E8"/>
<path d="M63.4 2.19995L72.1 21.1L54 19.5L63.4 2.19995Z" fill="#E2E4E8"/>
<path d="M57.4001 41.6L41.7001 44.3L30.6001 31.9L57.4001 41.6Z" fill="#E2E4E8"/>
<path d="M37.2998 7.2L29.5998 9.4L20.2998 0L37.2998 7.2Z" fill="#E2E4E8"/>
</g>
<g clip-path="url(#clip1)">
<path fill-rule="evenodd" clip-rule="evenodd" d="M452.089 21.9753H440.709V42.7753H452.409V41.5253H442.159V32.3553H450.499V31.1353H442.159V23.2553H452.089V21.9753ZM456.369 22.425L462.179 32.425L455.969 43.195H457.459L461.079 36.805C461.639 35.795 462.189 34.775 462.859 33.515H462.989C463.353 34.1577 463.687 34.7284 464 35.2629L464 35.2631L464 35.2635L464 35.2635C464.315 35.8018 464.608 36.3034 464.889 36.805L468.519 43.195H470.099L463.829 32.545L469.639 22.425H468.149L464.729 28.555C464.326 29.2523 464.013 29.8365 463.631 30.5526L463.631 30.553L463.631 30.5532C463.492 30.8126 463.344 31.0893 463.179 31.395H463.059C462.816 30.9838 462.602 30.6314 462.403 30.3025L462.403 30.3025C462.045 29.7119 461.733 29.1974 461.379 28.555L457.939 22.425H456.369ZM473.679 22.3953H478.919C483.629 22.3953 486.459 23.9253 486.459 28.1953C486.459 32.2753 483.679 34.2553 479.049 34.2553H475.099V43.1953H473.639L473.679 22.3953ZM478.679 33.0253C482.929 33.0253 484.969 31.6153 484.969 28.1953C484.969 24.7753 482.859 23.6753 478.559 23.6753H475.099V33.0753L478.679 33.0253ZM492.46 22.3953H491.01L491.1 43.1953H502.1V41.9453H492.46V22.3953ZM503.79 32.7349C503.79 26.1449 507.35 22.0149 512.35 22.0149C517.35 22.0149 520.92 26.1449 520.92 32.7349C520.92 39.3249 517.35 43.5749 512.35 43.5749C507.35 43.5749 503.79 39.3149 503.79 32.7349ZM519.4 32.7349C519.4 26.9649 516.58 23.3349 512.35 23.3349C508.12 23.3349 505.35 26.9649 505.35 32.7349C505.35 38.5049 508.17 42.2549 512.35 42.2549C516.53 42.2549 519.4 38.5049 519.4 32.7349ZM531.65 22.3953H525.7V43.1953H527.16V33.6453H531.595L537.21 43.1653H538.89L533.169 33.5483C536.438 33.1098 538.49 31.189 538.49 27.8853C538.49 23.9153 535.79 22.3953 531.65 22.3953ZM537 27.8553C537 30.9353 534.95 32.3953 531.27 32.3953H527.16V23.5953H531.27C535 23.5953 537 24.7753 537 27.8553ZM542.879 22.3953H554.259V23.6753H544.329V31.5553H552.669V32.7753H544.329V41.9453H554.569V43.1953H542.879V22.3953ZM565.1 22.3953H559.1V43.1953H560.6V33.6453H564.936L570.56 43.1653H572.24L566.527 33.5603C569.85 33.1459 571.94 31.2202 571.94 27.8853C571.94 23.9153 569.24 22.3953 565.1 22.3953ZM570.4 27.8553C570.4 30.9353 568.35 32.3953 564.67 32.3953L560.58 32.4753V23.6753H564.7C568.38 23.6753 570.4 24.7753 570.4 27.8553Z" fill="white"/>
<path d="M356.8 13.0951L349.6 52.4951H356.2L357.4 43.7951L363.2 48.1951L366 52.4951H372.6L365.2 13.0951H356.8ZM358.3 37.7951L361 20.8951H361.1L365 43.4951L358.3 37.7951Z" fill="white"/>
<path d="M116.9 13.145H110.1L103 27.675H102.9V13.145H96.1001V52.445H102.9V38.545L105.4 34.145H105.5L111 52.445H117.9L109.7 27.745L116.9 13.145Z" fill="white"/>
<path d="M185.9 24.6751C185.9 20.5751 185 17.5751 183.1 15.7751C181.2 13.9751 178.4 13.0951 174.5 13.0951H165V52.4951H171.7V36.2951C172.9 36.2951 174 36.2951 175.2 36.1951L180 52.4951H186.9L181.2 34.6751C184.4 33.1951 186 29.8951 185.9 24.6751ZM178.1 29.3951C177.604 29.9096 176.984 30.2883 176.3 30.4951C175.622 30.7103 174.906 30.7785 174.2 30.6951H171.8V18.5951H174.2C174.906 18.5117 175.622 18.5798 176.3 18.7951C176.984 19.0018 177.604 19.3806 178.1 19.8951C179.006 21.3142 179.395 23.0026 179.2 24.6751C179.407 26.3292 179.017 28.0029 178.1 29.3951Z" fill="white"/>
<path d="M208.9 13.0951H198.9V52.4951H208.9C216 52.4951 219.5 48.4951 219.6 40.5951V24.9951C219.5 17.0951 216 13.0951 208.9 13.0951ZM212.8 41.3951C212.986 42.9157 212.594 44.4507 211.7 45.6951C211.172 46.1442 210.56 46.4841 209.9 46.6951C209.257 46.9145 208.573 46.9829 207.9 46.8951H205.6V18.5951H207.9C208.573 18.5073 209.257 18.5757 209.9 18.7951C210.558 19.0103 211.169 19.3498 211.7 19.7951C212.504 21.0795 212.888 22.5823 212.8 24.0951V41.3951Z" fill="white"/>
<path d="M257.4 13.0951L250.2 52.4951H256.8L258 43.7951L263.9 48.1951L266.7 52.4951H273.3L265.8 13.0951H257.4ZM258.9 37.7951L261.6 20.8951H261.7L265.6 43.4951L258.9 37.7951Z" fill="white"/>
<path d="M137.1 13.0951L129.9 52.4951H136.5L137.7 43.7951L143.6 48.1951L146.4 52.4951H153L145.5 13.0951H137.1ZM138.6 37.7951L141.3 20.8951H141.4L145.3 43.4951L138.6 37.7951Z" fill="white"/>
<path d="M416.2 12.775V35.575H416.1C415.893 35.2284 415.725 34.8594 415.6 34.475C412.9 27.375 410.1 20.375 407.4 13.275C407.352 13.1189 407.261 12.9796 407.137 12.8733C407.013 12.7671 406.862 12.6983 406.7 12.675H401.1V52.0751H407.4V29.475C407.606 29.55 407.782 29.6905 407.9 29.875C410.7 37.0751 413.6 44.275 416.4 51.375C416.5 51.5751 416.7 52.0751 416.9 52.0751H422.5V12.775H416.2Z" fill="white"/>
<path d="M331.3 29.7951H323.8V13.0951H317.8V52.4951H323.9V34.9951H331.4V52.3951H337.4V13.0951H331.3V29.7951Z" fill="white"/>
<path d="M299.2 41.5051V44.1051C299.078 45.0666 298.617 45.9531 297.9 46.6051C297.538 46.9317 297.108 47.1732 296.641 47.3116C296.173 47.4501 295.681 47.482 295.2 47.4051C292.9 46.9051 291.9 46.3051 291.9 43.3051C291.8 36.7151 291.9 30.1051 291.9 23.4051C291.871 22.512 292.042 21.6237 292.4 20.8051C292.779 19.9937 293.41 19.3271 294.2 18.9051C294.78 18.7116 295.388 18.6136 296 18.6151C296.618 18.6941 297.205 18.9357 297.7 19.3151C298.176 19.6955 298.582 20.1557 298.9 20.6751C299.199 21.2208 299.305 21.8516 299.2 22.4651V24.4651H305.5V21.2151C305.435 20.1046 305.164 19.0159 304.7 18.0051C304.182 17.0068 303.507 16.0985 302.7 15.3151C301.16 14.0141 299.298 13.1513 297.31 12.817C295.322 12.4827 293.281 12.6893 291.4 13.4151C289.762 14.0251 288.338 15.0988 287.3 16.5051C286.299 17.9162 285.71 19.5783 285.6 21.3051C285.7 29.2051 285.6 37.0051 285.6 44.9151C285.589 46.1086 285.9 47.283 286.5 48.3151C287.108 49.3408 287.926 50.2268 288.9 50.9151C291.236 52.5242 294.09 53.2019 296.9 52.8151C299.22 52.6283 301.39 51.5963 303 49.9151C304.007 48.7673 304.727 47.3962 305.1 45.9151C305.483 44.4432 305.517 42.9024 305.2 41.4151L299.2 41.5051Z" fill="white"/>
<path d="M238.2 13.145H231.4V52.445H238.2V13.145Z" fill="white"/>
<path d="M384.6 52.445H390.6V13.145H384.6V52.445Z" fill="white"/>
</g>
<defs>
<clipPath id="clip0">
<rect width="72.1" height="65.6" fill="white"/>
</clipPath>
<clipPath id="clip1">
<rect width="476.22" height="40.25" fill="white" transform="translate(96.1001 12.675)"/>
</clipPath>
</defs>
</svg>
