<svg width="243" height="32" viewBox="0 0 243 32" fill="none" xmlns="http://www.w3.org/2000/svg">
<path d="M14.4241 4.58815L15.174 11.9996L17.9503 3.55103L14.4241 4.58815Z" fill="#C9CED6"/>
<path d="M9.85962 0L14.423 4.58729L17.9492 3.55017L9.85962 0Z" fill="#E1E4E8"/>
<path d="M13.4257 11.4802L15.1729 11.9988L14.423 4.58729L9.85962 0L13.4257 11.4802Z" fill="#F1F2F4"/>
<path d="M6.12703 0.774231L10.2835 14.6717L6.03927 21.9236L0 8.27346L6.12703 0.774231Z" fill="#C9CED6"/>
<path d="M22.2666 3.2309L26.3114 9.46164L18.9478 13.0677L22.2666 3.2309Z" fill="#F1F2F4"/>
<path d="M30.8594 1.01331L26.312 9.46191L22.2672 3.23116L30.8594 1.01331Z" fill="#F7F8F9"/>
<path d="M35.0622 10.2916L26.3104 9.46191L30.8578 1.01331L35.0622 10.2916Z" fill="#E1E4E8"/>
<path d="M30.2116 16.9047C30.0361 16.5935 26.3104 9.4613 26.3104 9.4613L35.0861 10.2591L30.2116 16.9047Z" fill="#C9CED6"/>
<path d="M18.9478 13.0673L30.2126 16.9047L26.3114 9.4613L18.9478 13.0673Z" fill="#E1E4E8"/>
<path d="M14.2798 15.3969L19.9999 31.249L27.5071 20.048L14.2798 15.3969Z" fill="#A83C3B"/>
<path d="M15.9878 32L6.03931 21.9239L10.2836 14.672L15.9878 32Z" fill="#C73C38"/>
<path d="M19.3138 20.2634L19.9999 31.249L14.2798 15.3969L19.3138 20.2634Z" fill="#F1F2F4"/>
<path d="M27.5071 20.048L19.3138 20.2634L14.2798 15.3969L27.5071 20.048Z" fill="#E1E4E8"/>
<path d="M20.0008 31.2494L19.3147 20.2639L27.508 20.0485L20.0008 31.2494Z" fill="#C9CED6"/>
<path d="M0 8.27346L10.2835 14.6717L6.12703 0.774231L0 8.27346Z" fill="#E1E4E8"/>
<path d="M10.2836 14.672L6.03931 21.9239L13.1317 23.32L10.2836 14.672Z" fill="#DB4545"/>
<path d="M15.9878 32L6.03931 21.9239L10.2835 14.672L15.9878 32Z" fill="#C9CED6"/>
<path d="M10.2836 14.672L6.03931 21.9239L13.1317 23.32L10.2836 14.672Z" fill="#E1E4E8"/>
<path d="M202.212 6.81667L198.694 25.9629H201.885L202.467 21.7188L205.267 23.8648L206.607 25.947H209.798L206.272 6.80072L202.212 6.81667ZM202.922 18.8469L204.23 10.6379H204.278L206.185 21.6391L202.922 18.8469Z" fill="white"/>
<path d="M61.5504 6.80072H58.2636L54.8252 13.8769H54.7774V6.80072H51.4906V25.931H54.7774V19.15L55.9421 17.036H55.99L58.6704 25.931H62.0051L57.9923 13.9327L61.5504 6.80072Z" fill="white"/>
<path d="M99.412 12.4568C99.412 10.4571 98.9573 9.01317 98.0478 8.125C97.1384 7.24746 95.7423 6.80072 93.8516 6.80072H89.2485V25.947H92.5273V18.089C93.0946 18.0951 93.6618 18.0712 94.2266 18.0172L96.556 25.931H99.8907L97.1065 17.2673C98.6488 16.5653 99.4173 14.9618 99.412 12.4568ZM95.5907 14.7624C95.3385 14.9982 95.0381 15.1766 94.7104 15.2854C94.3827 15.3942 94.0353 15.4307 93.6921 15.3926H92.5273V9.50513H93.6921C94.0353 9.46698 94.3827 9.50355 94.7104 9.61234C95.0381 9.72113 95.3385 9.89955 95.5907 10.1354C96.0227 10.828 96.2108 11.6451 96.1252 12.4568C96.209 13.2634 96.0209 14.0749 95.5907 14.7624Z" fill="white"/>
<path d="M114.41 6.80072H109.536V25.947H114.41C117.862 25.947 119.59 24.0244 119.596 20.1792V12.6004C119.596 8.73927 117.867 6.80604 114.41 6.80072ZM116.309 20.578C116.385 21.3164 116.202 22.0584 115.79 22.6761C115.541 22.895 115.25 23.0597 114.934 23.1599C114.618 23.2602 114.285 23.2938 113.955 23.2585H112.823V9.50513H113.955C114.285 9.46988 114.618 9.50344 114.934 9.60369C115.25 9.70394 115.541 9.86868 115.79 10.0875C116.202 10.7053 116.385 11.4472 116.309 12.1856V20.578Z" fill="white"/>
<path d="M133.564 6.80072H130.278V25.931H133.564V6.80072Z" fill="white"/>
<path d="M146.48 6.80072L142.962 25.947H146.153L146.735 21.7029L149.583 23.8648L150.924 25.947H154.115L150.581 6.80072H146.48ZM147.19 18.8309L148.49 10.614H148.546L150.445 21.6231L147.19 18.8309Z" fill="white"/>
<path d="M72.751 6.80072L69.2329 25.947H72.424L73.0063 21.7029L75.8543 23.8648L77.1946 25.947H80.3856L76.8276 6.80072H72.751ZM73.461 18.8309L74.7694 10.614H74.8172L76.7239 21.6231L73.461 18.8309Z" fill="white"/>
<path d="M239.228 6.83263V17.9454H239.156C239.068 17.7699 238.964 17.5944 238.892 17.4109C237.568 13.9699 236.239 10.5316 234.904 7.09589C234.856 6.96825 234.688 6.80072 234.577 6.80072C233.683 6.80072 232.782 6.80072 231.872 6.80072V25.947H234.928V14.9379C235.03 14.9763 235.113 15.0538 235.159 15.1533C236.542 18.6475 237.925 22.1417 239.307 25.6358C239.363 25.7555 239.467 25.9549 239.555 25.9549C240.464 25.9549 241.374 25.9549 242.275 25.9549V6.80869L239.228 6.83263Z" fill="white"/>
<path d="M187.277 14.9219H183.608V6.81667H180.688V25.9629H183.647V17.4827H187.309V25.947H190.245V6.80072H187.277V14.9219Z" fill="white"/>
<path d="M168.634 19.8022C168.634 20.249 168.634 20.6558 168.634 21.0707C168.587 21.5389 168.357 21.9697 167.994 22.2688C167.631 22.5678 167.164 22.7107 166.695 22.6662C165.562 22.4428 165.1 22.1476 165.1 20.6479C165.052 17.4568 165.1 14.2099 165.1 10.987C165.083 10.5608 165.159 10.1361 165.323 9.74248C165.498 9.34864 165.798 9.02343 166.177 8.81707C166.457 8.69914 166.762 8.65492 167.064 8.68864C167.366 8.72235 167.655 8.83287 167.902 9.00966C168.149 9.18645 168.347 9.42361 168.476 9.69853C168.606 9.97345 168.663 10.277 168.642 10.5801C168.642 10.9072 168.642 11.2263 168.642 11.5614H171.721C171.721 11.0109 171.721 10.4924 171.721 9.96585C171.696 9.41891 171.561 8.88264 171.324 8.38916C171.087 7.89567 170.752 7.45512 170.341 7.09391C169.596 6.46766 168.695 6.0547 167.735 5.8988C166.774 5.7429 165.789 5.84989 164.884 6.2084C164.088 6.50288 163.397 7.02691 162.898 7.7142C162.4 8.4015 162.117 9.22118 162.084 10.0696C162.132 13.8988 162.084 17.7201 162.084 21.5493C162.094 22.1288 162.244 22.6972 162.522 23.2057C162.8 23.7143 163.197 24.1478 163.68 24.4691C164.818 25.2621 166.216 25.5903 167.589 25.3866C168.725 25.3062 169.79 24.8023 170.572 23.9745C171.063 23.4166 171.418 22.752 171.608 22.0334C171.797 21.3147 171.817 20.5617 171.665 19.8341L168.634 19.8022Z" fill="white"/>
<path d="M218.892 25.947H221.788V6.80072H218.892V25.947Z" fill="white"/>
</svg>
