<svg width="498" height="87" viewBox="0 0 498 87" fill="none" xmlns="http://www.w3.org/2000/svg">
<path d="M29.6489 11.4311L31.1904 26.6655L36.8971 9.29932L29.6489 11.4311Z" fill="#C9CED6"/>
<path d="M20.2671 2L29.6471 11.4293L36.8954 9.29742L20.2671 2Z" fill="#E1E4E8"/>
<path d="M27.5973 25.5977L31.1886 26.6636L29.6471 11.4293L20.2671 2L27.5973 25.5977Z" fill="#F1F2F4"/>
<path d="M12.5942 3.59131L21.1379 32.1578L12.4138 47.0643L0 19.0061L12.5942 3.59131Z" fill="#C9CED6"/>
<path d="M45.7696 8.64111L54.0838 21.4485L38.9478 28.8607L45.7696 8.64111Z" fill="#F1F2F4"/>
<path d="M63.4324 4.08301L54.0851 21.4492L45.771 8.64184L63.4324 4.08301Z" fill="#F7F8F9"/>
<path d="M72.0709 23.1547L54.0815 21.4492L63.4288 4.08301L72.0709 23.1547Z" fill="#E1E4E8"/>
<path d="M62.1005 36.7477C61.7397 36.1082 54.0815 21.4478 54.0815 21.4478L72.1201 23.0876L62.1005 36.7477Z" fill="#C9CED6"/>
<path d="M38.9478 28.86L62.1027 36.7477L54.0838 21.4478L38.9478 28.86Z" fill="#E1E4E8"/>
<path d="M29.3525 33.6484L41.1104 66.2327L56.5416 43.2089L29.3525 33.6484Z" fill="#A83C3B"/>
<path d="M32.8632 67.7767L12.4141 47.0651L21.1382 32.1587L32.8632 67.7767Z" fill="#C73C38"/>
<path d="M39.7001 43.6516L41.1104 66.2327L29.3525 33.6484L39.7001 43.6516Z" fill="#F1F2F4"/>
<path d="M56.5416 43.2089L39.7001 43.6516L29.3525 33.6484L56.5416 43.2089Z" fill="#E1E4E8"/>
<path d="M41.1119 66.2337L39.7017 43.6527L56.5431 43.21L41.1119 66.2337Z" fill="#C9CED6"/>
<path d="M0 19.0061L21.1379 32.1578L12.5942 3.59131L0 19.0061Z" fill="#E1E4E8"/>
<path d="M21.1382 32.1587L12.4141 47.0651L26.9925 49.9349L21.1382 32.1587Z" fill="#DB4545"/>
<path d="M32.8632 67.7767L12.4141 47.0651L21.1382 32.1587L32.8632 67.7767Z" fill="#C9CED6"/>
<path d="M21.1382 32.1587L12.4141 47.0651L26.9925 49.9349L21.1382 32.1587Z" fill="#E1E4E8"/>
<path d="M415.649 2.02986L408.417 41.3853H414.977L416.174 32.6615L421.93 37.0726L424.684 41.3525H431.244L423.996 1.99707L415.649 2.02986ZM417.108 26.7582L419.798 9.88455H419.896L423.815 32.4975L417.108 26.7582Z" fill="white"/>
<path d="M126.518 1.99707H119.762L112.694 16.5422H112.596V1.99707H105.84V41.3197H112.596V27.3813L114.99 23.0358H115.088L120.598 41.3197H127.453L119.204 16.6569L126.518 1.99707Z" fill="white"/>
<path d="M204.343 13.6233C204.343 9.51285 203.409 6.5448 201.539 4.71914C199.67 2.91536 196.8 1.99707 192.914 1.99707H183.452V41.3525H190.192V25.2003C191.358 25.2129 192.524 25.1636 193.685 25.0528L198.473 41.3197H205.327L199.604 23.5113C202.775 22.0683 204.354 18.7723 204.343 13.6233ZM196.489 18.3623C195.97 18.847 195.353 19.2138 194.679 19.4374C194.005 19.661 193.291 19.7362 192.586 19.6578H190.192V7.55602H192.586C193.291 7.4776 194.005 7.55278 194.679 7.77639C195.353 8.00001 195.97 8.36676 196.489 8.85147C197.376 10.2752 197.763 11.9547 197.587 13.6233C197.76 15.2813 197.373 16.9493 196.489 18.3623Z" fill="white"/>
<path d="M235.172 1.99707H225.152V41.3525H235.172C242.266 41.3525 245.819 37.4005 245.83 29.4966V13.9185C245.83 5.9818 242.277 2.008 235.172 1.99707ZM239.074 30.3165C239.231 31.8343 238.855 33.3594 238.008 34.6292C237.497 35.079 236.898 35.4176 236.248 35.6237C235.599 35.8297 234.914 35.8987 234.237 35.8263H231.908V7.55602H234.237C234.914 7.48357 235.599 7.55256 236.248 7.75862C236.898 7.96467 237.497 8.30331 238.008 8.75307C238.855 10.0229 239.231 11.548 239.074 13.0658V30.3165Z" fill="white"/>
<path d="M274.544 1.99707H267.788V41.3197H274.544V1.99707Z" fill="white"/>
<path d="M301.092 1.99707L293.86 41.3525H300.42L301.617 32.6287L307.471 37.0726L310.226 41.3525H316.785L309.521 1.99707H301.092ZM302.551 26.7254L305.224 9.83535H305.339L309.242 32.4647L302.551 26.7254Z" fill="white"/>
<path d="M149.541 1.99707L142.309 41.3525H148.868L150.065 32.6287L155.919 37.0726L158.674 41.3525H165.234L157.92 1.99707H149.541ZM151 26.7254L153.689 9.83535H153.788L157.707 32.4647L151 26.7254Z" fill="white"/>
<path d="M491.736 2.06265V24.9052H491.589C491.408 24.5444 491.195 24.1837 491.047 23.8065C488.325 16.7335 485.592 9.6659 482.848 2.60379C482.75 2.34142 482.406 1.99707 482.176 1.99707C480.34 1.99707 478.487 1.99707 476.617 1.99707V41.3525H482.898V18.7231C483.108 18.8021 483.279 18.9613 483.373 19.1659C486.216 26.3482 489.058 33.5306 491.9 40.7129C492.015 40.9589 492.228 41.3689 492.409 41.3689C494.278 41.3689 496.147 41.3689 498 41.3689V2.01346L491.736 2.06265Z" fill="white"/>
<path d="M384.952 18.6903H377.408V2.02986H371.407V41.3853H377.49V23.9541H385.017V41.3525H391.052V1.99707H384.952V18.6903Z" fill="white"/>
<path d="M346.63 28.7219C346.63 29.6401 346.63 30.4765 346.63 31.3292C346.534 32.2917 346.061 33.1772 345.314 33.7918C344.568 34.4065 343.608 34.7002 342.645 34.6088C340.316 34.1496 339.365 33.5429 339.365 30.4601C339.267 23.9008 339.365 17.2268 339.365 10.602C339.33 9.72601 339.487 8.85296 339.824 8.04388C340.184 7.23434 340.801 6.56586 341.579 6.1417C342.155 5.89929 342.783 5.8084 343.404 5.87769C344.024 5.94699 344.617 6.17417 345.125 6.53756C345.633 6.90095 346.04 7.38844 346.306 7.95354C346.572 8.51864 346.689 9.14252 346.646 9.76567C346.646 10.438 346.646 11.0939 346.646 11.7826H352.976C352.976 10.6512 352.976 9.5853 352.976 8.50303C352.924 7.37879 352.647 6.27647 352.159 5.2621C351.672 4.24774 350.985 3.34219 350.139 2.5997C348.607 1.31245 346.756 0.463597 344.782 0.143145C342.807 -0.177308 340.782 0.0425968 338.922 0.779529C337.286 1.38483 335.865 2.46198 334.841 3.87472C333.816 5.28747 333.234 6.97233 333.167 8.7162C333.265 16.5873 333.167 24.442 333.167 32.313C333.187 33.5041 333.496 34.6725 334.067 35.7178C334.639 36.7631 335.455 37.6543 336.446 38.3147C338.786 39.9448 341.661 40.6194 344.481 40.2005C346.817 40.0354 349.006 38.9996 350.614 37.2981C351.624 36.1513 352.352 34.7852 352.742 33.308C353.132 31.8308 353.173 30.2831 352.861 28.7874L346.63 28.7219Z" fill="white"/>
<path d="M449.937 41.3525H455.89V1.99707H449.937V41.3525Z" fill="white"/>
<path d="M120.592 62.1781V64.8421H115.288V78.0181H111.976V64.8421H106.648V62.1781H120.592ZM125.298 78.0181V62.1781H137.178V64.8421H128.61V68.7781H135.354V71.3221H128.61V75.3541H137.514V78.0181H125.298ZM148.27 61.9381C149.71 61.9381 150.974 62.1861 152.062 62.6821C153.15 63.1781 154.078 63.9141 154.846 64.8901L152.998 67.0261C152.342 66.1941 151.622 65.5861 150.838 65.2021C150.07 64.8021 149.174 64.6021 148.15 64.6021C147.126 64.6021 146.382 64.7941 145.918 65.1781C145.454 65.5461 145.222 65.9941 145.222 66.5221C145.222 66.9541 145.382 67.3221 145.702 67.6261C146.038 67.9141 146.622 68.1541 147.454 68.3461L150.406 69.0181C151.958 69.3701 153.078 69.8981 153.766 70.6021C154.454 71.2901 154.798 72.1861 154.798 73.2901C154.798 74.3301 154.526 75.2261 153.982 75.9781C153.438 76.7141 152.678 77.2821 151.702 77.6821C150.726 78.0661 149.606 78.2581 148.342 78.2581C146.694 78.2581 145.246 77.9701 143.998 77.3941C142.75 76.8181 141.766 76.0741 141.046 75.1621L142.918 72.9301C143.462 73.6981 144.206 74.3381 145.15 74.8501C146.11 75.3461 147.174 75.5941 148.342 75.5941C149.318 75.5941 150.07 75.4341 150.598 75.1141C151.126 74.7781 151.39 74.3061 151.39 73.6981C151.39 73.2981 151.246 72.9461 150.958 72.6421C150.686 72.3381 150.174 72.1061 149.422 71.9461L146.206 71.2261C144.798 70.9221 143.71 70.4261 142.942 69.7381C142.174 69.0501 141.79 68.1141 141.79 66.9301C141.79 65.9861 142.046 65.1381 142.558 64.3861C143.07 63.6341 143.806 63.0421 144.766 62.6101C145.742 62.1621 146.91 61.9381 148.27 61.9381ZM172.014 62.1781V64.8421H166.71V78.0181H163.398V64.8421H158.07V62.1781H172.014ZM190.328 62.1781V78.0181H186.536L180.992 68.7061L179.624 66.1141H179.6L179.696 68.8501V78.0181H176.72V62.1781H180.488L186.032 71.4661L187.4 74.0821H187.448L187.352 71.3461V62.1781H190.328ZM196.462 78.0181V62.1781H208.342V64.8421H199.774V68.7781H206.518V71.3221H199.774V75.3541H208.678V78.0181H196.462ZM226.178 62.1781V64.8421H220.874V78.0181H217.562V64.8421H212.234V62.1781H226.178Z" fill="#FCFCFC" fill-opacity="0.54"/>
</svg>
