<svg width="243" height="32" viewBox="0 0 243 32" fill="none" xmlns="http://www.w3.org/2000/svg">
<path d="M14.424 4.58815L15.1739 11.9996L17.9502 3.55103L14.424 4.58815Z" fill="#393939"/>
<path d="M9.85974 0L14.4231 4.58729L17.9493 3.55017L9.85974 0Z" fill="#1B1B1B"/>
<path d="M13.4259 11.4802L15.173 11.9988L14.4231 4.58729L9.85974 0L13.4259 11.4802Z" fill="#585858"/>
<path d="M6.12703 0.77417L10.2835 14.6717L6.03927 21.9236L0 8.2734L6.12703 0.77417Z" fill="#393939"/>
<path d="M22.2667 3.23096L26.3115 9.4617L18.9479 13.0677L22.2667 3.23096Z" fill="#585858"/>
<path d="M30.8595 1.01343L26.3121 9.46203L22.2673 3.23128L30.8595 1.01343Z" fill="#767676"/>
<path d="M35.0622 10.2917L26.3104 9.46203L30.8578 1.01343L35.0622 10.2917Z" fill="#1B1B1B"/>
<path d="M30.2116 16.9046C30.0361 16.5934 26.3104 9.46118 26.3104 9.46118L35.0861 10.259L30.2116 16.9046Z" fill="#393939"/>
<path d="M18.9479 13.0672L30.2127 16.9046L26.3115 9.46118L18.9479 13.0672Z" fill="#1B1B1B"/>
<path d="M14.2798 15.397L19.9999 31.2491L27.5071 20.0481L14.2798 15.397Z" fill="#A83C3B"/>
<path d="M15.9878 31.9999L6.03931 21.9238L10.2836 14.6719L15.9878 31.9999Z" fill="#C73C38"/>
<path d="M19.3138 20.2635L19.9999 31.2491L14.2798 15.397L19.3138 20.2635Z" fill="#585858"/>
<path d="M27.5071 20.0481L19.3138 20.2635L14.2798 15.397L27.5071 20.0481Z" fill="#1B1B1B"/>
<path d="M20.0008 31.2496L19.3147 20.264L27.508 20.0486L20.0008 31.2496Z" fill="#393939"/>
<path d="M0 8.2734L10.2835 14.6717L6.12703 0.77417L0 8.2734Z" fill="#1B1B1B"/>
<path d="M10.2836 14.6719L6.03931 21.9238L13.1317 23.3199L10.2836 14.6719Z" fill="#DB4545"/>
<path d="M15.9878 31.9999L6.03931 21.9238L10.2835 14.6719L15.9878 31.9999Z" fill="#393939"/>
<path d="M10.2836 14.6719L6.03931 21.9238L13.1317 23.3199L10.2836 14.6719Z" fill="#1B1B1B"/>
<path d="M202.212 6.81649L198.694 25.9627H201.885L202.467 21.7187L205.267 23.8646L206.607 25.9468H209.798L206.272 6.80054L202.212 6.81649ZM202.922 18.8467L204.23 10.6378H204.278L206.185 21.6389L202.922 18.8467Z" fill="black"/>
<path d="M61.5504 6.80054H58.2636L54.8253 13.8767H54.7774V6.80054H51.4907V25.9308H54.7774V19.1499L55.9422 17.0358H55.99L58.6705 25.9308H62.0051L57.9924 13.9325L61.5504 6.80054Z" fill="black"/>
<path d="M99.4121 12.4567C99.4121 10.4569 98.9574 9.01299 98.048 8.12482C97.1385 7.24728 95.7424 6.80054 93.8517 6.80054H89.2487V25.9468H92.5275V18.0888C93.0947 18.095 93.6619 18.071 94.2267 18.017L96.5561 25.9308H99.8908L97.1066 17.2671C98.6489 16.5651 99.4174 14.9616 99.4121 12.4567ZM95.5909 14.7622C95.3386 14.998 95.0383 15.1764 94.7105 15.2852C94.3828 15.394 94.0354 15.4306 93.6922 15.3924H92.5275V9.50494H93.6922C94.0354 9.4668 94.3828 9.50337 94.7105 9.61216C95.0383 9.72094 95.3386 9.89937 95.5909 10.1352C96.0228 10.8278 96.2109 11.6449 96.1254 12.4567C96.2091 13.2633 96.021 14.0747 95.5909 14.7622Z" fill="black"/>
<path d="M114.41 6.80054H109.536V25.9468H114.41C117.862 25.9468 119.59 24.0242 119.596 20.179V12.6003C119.596 8.73909 117.867 6.80586 114.41 6.80054ZM116.309 20.5779C116.385 21.3162 116.202 22.0582 115.79 22.676C115.541 22.8948 115.25 23.0595 114.934 23.1598C114.618 23.26 114.285 23.2936 113.955 23.2583H112.823V9.50494H113.955C114.285 9.4697 114.618 9.50326 114.934 9.60351C115.25 9.70375 115.541 9.8685 115.79 10.0873C116.202 10.7051 116.385 11.447 116.309 12.1854V20.5779Z" fill="black"/>
<path d="M133.564 6.80054H130.278V25.9308H133.564V6.80054Z" fill="black"/>
<path d="M146.48 6.80054L142.962 25.9468H146.153L146.735 21.7027L149.583 23.8646L150.924 25.9468H154.115L150.581 6.80054H146.48ZM147.19 18.8308L148.49 10.6138H148.546L150.445 21.6229L147.19 18.8308Z" fill="black"/>
<path d="M72.7509 6.80054L69.2328 25.9468H72.4239L73.0062 21.7027L75.8542 23.8646L77.1945 25.9468H80.3855L76.8275 6.80054H72.7509ZM73.461 18.8308L74.7693 10.6138H74.8171L76.7238 21.6229L73.461 18.8308Z" fill="black"/>
<path d="M239.228 6.83244V17.9452H239.156C239.068 17.7697 238.964 17.5942 238.893 17.4107C237.568 13.9697 236.239 10.5314 234.904 7.0957C234.856 6.96806 234.688 6.80054 234.577 6.80054C233.683 6.80054 232.782 6.80054 231.872 6.80054V25.9468H234.928V14.9377C235.03 14.9761 235.113 15.0536 235.159 15.1531C236.542 18.6473 237.925 22.1415 239.307 25.6357C239.363 25.7553 239.467 25.9548 239.555 25.9548C240.464 25.9548 241.374 25.9548 242.275 25.9548V6.80851L239.228 6.83244Z" fill="black"/>
<path d="M187.277 14.9217H183.608V6.81649H180.688V25.9627H183.648V17.4826H187.309V25.9468H190.245V6.80054H187.277V14.9217Z" fill="black"/>
<path d="M168.634 19.8022C168.634 20.2489 168.634 20.6558 168.634 21.0706C168.587 21.5389 168.357 21.9697 167.994 22.2687C167.631 22.5677 167.164 22.7106 166.695 22.6661C165.563 22.4428 165.1 22.1476 165.1 20.6478C165.052 17.4568 165.1 14.2099 165.1 10.9869C165.083 10.5608 165.159 10.136 165.323 9.74242C165.498 9.34858 165.798 9.02337 166.177 8.81701C166.457 8.69908 166.762 8.65486 167.065 8.68858C167.367 8.72229 167.655 8.83281 167.902 9.0096C168.149 9.18639 168.347 9.42355 168.477 9.69847C168.606 9.97339 168.663 10.2769 168.642 10.5801C168.642 10.9071 168.642 11.2263 168.642 11.5613H171.721C171.721 11.0109 171.721 10.4923 171.721 9.96579C171.696 9.41885 171.561 8.88258 171.324 8.38909C171.087 7.89561 170.753 7.45506 170.341 7.09385C169.596 6.4676 168.696 6.05464 167.735 5.89874C166.774 5.74284 165.789 5.84982 164.884 6.20834C164.088 6.50282 163.397 7.02684 162.899 7.71414C162.4 8.40143 162.117 9.22111 162.084 10.0695C162.132 13.8987 162.084 17.72 162.084 21.5493C162.094 22.1287 162.245 22.6971 162.522 23.2057C162.8 23.7142 163.197 24.1478 163.68 24.4691C164.818 25.2621 166.217 25.5903 167.589 25.3865C168.725 25.3061 169.79 24.8022 170.572 23.9745C171.064 23.4166 171.418 22.752 171.608 22.0333C171.797 21.3147 171.817 20.5617 171.665 19.8341L168.634 19.8022Z" fill="black"/>
<path d="M218.893 25.9468H221.788V6.80054H218.893V25.9468Z" fill="black"/>
</svg>
