<svg width="100" height="100" viewBox="0 0 100 100" fill="none" xmlns="http://www.w3.org/2000/svg">
<circle cx="50" cy="50" r="50" fill="#F2F4FA"/>
<path d="M43.6923 31.4448L45.2361 46.7015L50.9512 29.3098L43.6923 31.4448Z" fill="#393939"/>
<path d="M34.2966 22L43.6904 31.4431L50.9493 29.3081L34.2966 22Z" fill="#1B1B1B"/>
<path d="M41.6376 45.6323L45.2342 46.6998L43.6904 31.4431L34.2966 22L41.6376 45.6323Z" fill="#585858"/>
<path d="M26.6127 23.5938L35.1689 52.2022L26.432 67.1305L14 39.0311L26.6127 23.5938Z" fill="#393939"/>
<path d="M59.8366 28.6509L68.1629 41.477L53.0047 48.9001L59.8366 28.6509Z" fill="#585858"/>
<path d="M77.5253 24.0859L68.1643 41.4776L59.838 28.6515L77.5253 24.0859Z" fill="#767676"/>
<path d="M86.1765 43.1856L68.1608 41.4776L77.5217 24.0859L86.1765 43.1856Z" fill="#1B1B1B"/>
<path d="M76.1915 56.7987C75.8302 56.1583 68.1608 41.4763 68.1608 41.4763L86.2258 43.1186L76.1915 56.7987Z" fill="#393939"/>
<path d="M53.0047 48.8994L76.1936 56.7987L68.1629 41.4763L53.0047 48.8994Z" fill="#1B1B1B"/>
<path d="M43.3955 53.6948L55.1706 86.3268L70.6244 63.2693L43.3955 53.6948Z" fill="#A83C3B"/>
<path d="M46.9113 87.8728L26.4321 67.1309L35.169 52.2026L46.9113 87.8728Z" fill="#C73C38"/>
<path d="M53.7582 63.7127L55.1706 86.3268L43.3955 53.6948L53.7582 63.7127Z" fill="#585858"/>
<path d="M70.6244 63.2693L53.7582 63.7127L43.3955 53.6948L70.6244 63.2693Z" fill="#1B1B1B"/>
<path d="M55.1723 86.3278L53.7599 63.7137L70.6261 63.2703L55.1723 86.3278Z" fill="#393939"/>
<path d="M14 39.0311L35.1689 52.2022L26.6127 23.5938L14 39.0311Z" fill="#1B1B1B"/>
<path d="M35.169 52.2026L26.4321 67.1309L41.032 70.0049L35.169 52.2026Z" fill="#DB4545"/>
<path d="M46.9113 87.8728L26.4321 67.1309L35.169 52.2026L46.9113 87.8728Z" fill="#393939"/>
<path d="M35.169 52.2026L26.4321 67.1309L41.032 70.0049L35.169 52.2026Z" fill="#1B1B1B"/>
</svg>
