<?xml version="1.0" standalone="no"?>
<!DOCTYPE svg PUBLIC "-//W3C//DTD SVG 20010904//EN"
 "http://www.w3.org/TR/2001/REC-SVG-20010904/DTD/svg10.dtd">
<svg version="1.0" xmlns="http://www.w3.org/2000/svg"
 width="576.000000pt" height="576.000000pt" viewBox="0 0 576.000000 576.000000"
 preserveAspectRatio="xMidYMid meet">
<metadata>
Created by potrace 1.11, written by Peter Selinger 2001-2013
</metadata>
<g transform="translate(0.000000,576.000000) scale(0.100000,-0.100000)"
fill="#000000" stroke="none">
<path d="M1580 5426 c0 -3 5 -17 12 -33 6 -15 12 -32 13 -38 2 -5 11 -37 21
-70 10 -33 19 -62 19 -65 1 -3 4 -12 7 -20 4 -8 18 -55 33 -105 15 -49 36
-117 47 -150 11 -33 21 -67 23 -75 2 -8 18 -60 35 -115 49 -153 97 -310 245
-790 20 -66 39 -127 42 -135 4 -8 7 -19 8 -25 2 -5 12 -39 24 -75 12 -36 23
-76 26 -88 2 -12 6 -26 10 -31 5 -8 86 -36 135 -46 8 -2 44 -13 80 -24 35 -11
65 -19 66 -18 3 3 99 290 213 642 45 138 85 257 88 265 6 16 8 21 17 55 3 11
22 67 41 125 20 58 38 112 40 120 3 8 13 41 25 74 11 32 18 61 16 65 -5 8 -53
31 -136 66 -63 27 -102 44 -192 84 -24 10 -63 28 -88 39 -25 11 -79 34 -120
52 -41 18 -100 44 -130 57 -30 14 -68 31 -85 38 -16 7 -104 45 -195 85 -91 39
-181 79 -200 87 -19 8 -52 23 -73 34 -36 18 -67 25 -67 15z"/>
<path d="M948 5278 c-27 -34 -59 -73 -79 -97 -7 -7 -44 -52 -82 -100 -39 -47
-74 -87 -79 -89 -4 -2 -8 -10 -8 -17 0 -7 -4 -15 -8 -17 -5 -1 -30 -30 -57
-63 -26 -33 -51 -62 -54 -65 -3 -3 -19 -23 -36 -45 -16 -21 -36 -47 -45 -56
-8 -9 -22 -25 -30 -35 -104 -130 -138 -172 -155 -190 -11 -12 -31 -37 -45 -55
-14 -18 -34 -43 -45 -55 -11 -13 -30 -36 -42 -51 -12 -15 -30 -38 -40 -50 -10
-12 -25 -30 -33 -40 -8 -10 -33 -41 -56 -68 -56 -69 -57 -71 -38 -100 9 -14
13 -25 10 -25 -4 0 0 -12 8 -27 16 -30 86 -182 86 -188 0 -2 18 -43 40 -90 22
-47 40 -88 40 -91 0 -3 16 -39 35 -80 19 -41 35 -76 35 -78 0 -2 14 -34 32
-72 17 -38 32 -71 33 -74 1 -3 8 -21 17 -40 8 -19 41 -93 73 -165 31 -71 65
-148 75 -170 10 -22 37 -83 60 -135 23 -52 50 -113 60 -135 10 -22 62 -139
115 -260 137 -309 134 -302 171 -383 19 -40 34 -77 34 -83 0 -14 30 -60 54
-85 65 -66 1100 -1115 1309 -1327 136 -138 247 -245 247 -238 0 11 -114 366
-131 406 -4 11 -33 99 -64 195 -31 96 -59 182 -62 190 -4 8 -7 17 -7 20 -1 3
-5 11 -9 17 -5 7 -6 13 -3 13 5 0 -15 62 -52 160 -3 8 -6 20 -7 25 -5 23 -48
151 -55 166 -5 9 -14 36 -21 60 -15 54 -14 51 -22 69 -9 23 -30 95 -29 97 1 2
-6 19 -14 40 -9 20 -17 44 -19 52 -2 9 -44 140 -94 291 -50 151 -91 278 -92
282 0 4 -11 37 -24 73 -13 36 -21 65 -18 65 3 0 1 6 -4 13 -5 6 -42 113 -82
237 -40 124 -77 234 -82 245 -5 11 -20 58 -33 105 -34 118 -64 217 -81 270
-14 46 -95 317 -100 335 -1 6 -5 17 -8 25 -4 8 -8 24 -10 35 -2 11 -7 27 -10
35 -7 17 -76 245 -82 271 -2 9 -13 47 -25 85 -12 38 -23 76 -25 84 -3 13 -98
332 -124 415 -5 17 -19 62 -30 100 -116 390 -144 481 -150 488 -4 4 -19 -7
-33 -25z"/>
<path d="M4785 5238 c-82 -22 -161 -41 -175 -44 -14 -3 -43 -10 -65 -16 -22
-5 -41 -10 -42 -10 -2 1 -17 -4 -35 -9 -63 -19 -230 -62 -758 -197 l-146 -37
-17 -50 c-10 -27 -20 -57 -22 -65 -3 -11 -169 -498 -198 -580 -3 -8 -53 -159
-112 -335 -58 -176 -109 -327 -112 -335 -3 -8 -8 -24 -10 -34 -2 -11 -8 -24
-13 -30 -5 -7 -11 -23 -13 -36 -2 -14 -9 -38 -16 -55 -6 -16 -13 -35 -16 -42
-2 -6 8 -16 23 -21 15 -6 36 -14 47 -18 11 -4 22 -8 25 -9 3 -1 12 -4 20 -7 8
-3 40 -13 70 -22 30 -10 64 -21 75 -26 11 -5 70 -25 130 -45 61 -20 117 -39
125 -42 8 -3 20 -7 25 -9 6 -1 57 -19 115 -39 58 -20 110 -38 115 -39 6 -2 17
-6 25 -9 8 -3 62 -22 120 -41 58 -19 278 -94 489 -165 211 -72 387 -131 391
-131 4 0 34 36 66 81 32 44 70 95 84 113 29 38 26 34 166 226 58 80 110 152
117 160 7 8 28 37 47 64 43 62 186 257 200 273 6 7 30 41 55 76 42 60 44 66
33 95 -7 18 -16 32 -20 32 -4 0 -8 7 -8 15 0 8 -4 23 -10 33 -11 19 -72 151
-130 282 -21 47 -50 112 -65 145 -33 72 -64 142 -95 210 -12 28 -40 87 -61
133 -22 45 -39 84 -39 86 0 3 -22 52 -50 111 -27 59 -50 108 -50 110 0 4 -79
176 -113 246 l-22 46 -150 -39z"/>
<path d="M2290 2970 c0 -5 18 -59 41 -122 22 -62 42 -117 43 -123 2 -5 6 -17
9 -25 10 -23 115 -315 121 -335 2 -5 6 -17 9 -25 9 -22 125 -346 149 -415 11
-33 24 -64 29 -70 5 -5 9 -16 9 -24 0 -14 37 -119 61 -176 9 -22 23 -60 99
-275 28 -80 54 -154 59 -165 5 -11 43 -117 86 -235 42 -118 96 -269 120 -335
24 -66 49 -137 56 -158 7 -20 16 -37 20 -37 3 0 28 33 55 72 26 40 52 75 56
76 4 2 8 7 8 12 0 6 93 148 310 470 5 8 147 220 314 470 168 250 309 460 313
465 4 6 38 56 75 112 77 116 79 105 -32 142 -36 12 -72 25 -80 28 -8 3 -17 7
-20 8 -22 5 -89 28 -105 35 -23 11 -242 89 -265 95 -8 2 -40 13 -70 23 -175
64 -408 145 -428 149 -12 3 -25 9 -28 14 -3 5 -15 9 -28 9 -12 0 -26 3 -29 6
-7 8 -94 40 -142 53 -16 5 -82 28 -145 51 -140 51 -246 88 -410 145 -69 23
-155 54 -192 68 -38 13 -68 21 -68 17z"/>
</g>
</svg>
